<svg width="173" height="184" viewBox="0 0 173 184" fill="none" xmlns="http://www.w3.org/2000/svg">
<g filter="url(#filter0_n_235_589)">
<path d="M123.906 47.8809L123.917 47.8818H123.928C124.659 47.8736 125.371 48.1097 125.952 48.5527C126.399 48.9389 126.727 49.4432 126.899 50.0078L126.901 50.0156L126.904 50.0234C127.238 51.0072 127.134 52.0793 126.777 53.2158C126.418 54.3545 125.824 55.5032 125.233 56.6289C124.316 58.3405 123.229 59.9554 121.987 61.4473L121.98 61.4561C121.105 62.5564 120.171 63.609 119.185 64.6104L118.758 65.0371C118.342 65.4488 117.845 65.9812 117.252 66.6133C116.657 67.2484 115.957 67.9918 115.127 68.8379C114.209 69.774 112.089 71.9216 109.247 74.6055C106.641 77.0686 104.44 79.025 102.964 80.3164H102.962C101.2 81.8668 98.2994 84.434 94.2698 87.5254C91.9447 89.3102 90.1192 90.6652 89.2258 91.3174L89.2249 91.3184C86.9584 92.9809 83.9574 95.1796 80.0696 97.8174L78.3489 98.9746C75.3226 100.988 71.5762 103.388 67.1907 105.987C57.6424 110.899 50.6615 114.457 48.7532 115.425L48.7522 115.426C48.2664 115.673 47.1697 116.24 45.6702 116.828L45.6682 116.829C44.8043 117.174 43.8067 117.534 42.6917 117.873C41.0503 118.372 39.8517 118.727 38.2825 118.886C37.1628 119 35.5612 119.16 33.9192 118.947C32.2808 118.735 30.6517 118.156 29.4368 116.83L29.4348 116.829L29.3098 116.685C29.0986 116.43 28.6605 115.859 28.2825 115.083C27.8092 114.112 27.4501 112.862 27.7014 111.528L27.76 111.261C28.2477 109.311 29.8208 108.233 31.3401 107.206C31.9107 106.823 32.8403 106.393 34.0354 105.928C35.2215 105.466 36.6363 104.984 38.1565 104.489C41.1826 103.505 44.6452 102.471 47.4504 101.5C53.0245 99.5779 57.0095 97.7398 63.0393 94.9609C67.3498 92.9731 72.4548 90.6308 78.9143 87.0039L78.9153 87.0049C84.9398 83.6247 93.7724 78.6147 103.409 70.5859C106.448 68.0536 110.045 64.8223 111.589 63.4365C115.715 59.7316 118.582 57.0004 120.454 55.2373C120.866 54.8495 121.228 54.5104 121.543 54.2188C121.032 54.9669 120.356 55.8952 119.553 56.9443C117.511 59.6103 114.676 63.0364 111.738 66.2627L111.737 66.2637C108.446 69.8938 104.949 73.332 101.263 76.5596H101.262C100.359 77.3537 98.8776 78.6057 90.8059 84.791C84.8213 89.376 81.8417 91.6578 80.5256 92.6025C76.6864 95.3491 73.2827 97.4745 61.0305 104.246C55.2367 107.452 50.5822 109.828 47.3987 111.47C45.8105 112.289 44.578 112.931 43.7571 113.4C43.3497 113.634 43.0247 113.836 42.804 114.003C42.6971 114.084 42.5873 114.176 42.5061 114.278C42.4547 114.343 42.26 114.601 42.3967 114.916V114.917C42.4973 115.148 42.7048 115.226 42.7991 115.252C42.906 115.282 43.0151 115.287 43.1018 115.285C43.2806 115.282 43.4993 115.25 43.7297 115.204C44.1985 115.111 44.8154 114.944 45.4778 114.743C46.8072 114.341 48.3749 113.791 49.429 113.392L49.428 113.391C51.1665 112.736 52.6053 112.078 54.8411 110.946L55.8518 110.431C58.3362 109.16 60.3809 108.071 61.8049 107.3C62.5169 106.914 63.0742 106.608 63.4534 106.397C63.6429 106.292 63.7881 106.211 63.886 106.156C63.9349 106.129 63.9723 106.108 63.9973 106.094C64.0097 106.087 64.0193 106.082 64.0256 106.078C64.0286 106.076 64.0309 106.075 64.0325 106.074L64.0344 106.073L64.0354 106.072C75.844 99.3838 84.5123 94.0355 87.2913 91.9189L87.2932 91.918C88.0992 91.2992 88.989 90.604 89.677 90.0645C90.0211 89.7946 90.3149 89.5632 90.5227 89.3994C90.6266 89.3175 90.7094 89.2526 90.7659 89.208C90.794 89.1858 90.8157 89.1688 90.8303 89.1572C90.8377 89.1514 90.8432 89.1465 90.8469 89.1436C90.8486 89.1423 90.8499 89.1414 90.8508 89.1406L90.8518 89.1396H90.8528L90.8538 89.1387C90.8548 89.1378 90.8565 89.1365 90.8586 89.1348L90.9514 89.0615C91.0155 89.0109 91.1088 88.9374 91.2258 88.8447C91.4607 88.6588 91.7917 88.3958 92.176 88.0898C92.9443 87.4782 93.9269 86.6914 94.7825 85.9932C96.0358 84.9723 100.331 81.2909 107.019 74.9443C109.876 72.2518 112.847 69.3724 115.437 66.6895C116.932 65.1534 118.006 63.9918 118.93 62.9688L119.815 61.9834C120.486 61.2314 120.978 60.6694 121.543 59.9834L121.544 59.9814C122.62 58.6635 123.626 57.2899 124.558 55.8662L124.559 55.8652L124.56 55.8633C124.561 55.862 124.562 55.8605 124.564 55.8584C124.567 55.8537 124.572 55.8463 124.577 55.8379C124.589 55.8211 124.604 55.7971 124.624 55.7666C124.664 55.705 124.721 55.6164 124.788 55.5059C124.923 55.2851 125.101 54.9737 125.281 54.6123C125.607 53.9534 125.968 53.0595 126.003 52.2227L126.006 52.0566C126.006 51.926 126.001 51.4262 125.875 50.8926C125.756 50.3848 125.486 49.6664 124.822 49.3555L124.818 49.3535L124.711 49.3096C124.178 49.1131 123.626 49.2541 123.208 49.4316C122.75 49.6265 122.337 49.9161 122.078 50.1025C120.103 51.5278 118.286 53.4072 116.47 55.376C114.644 57.3561 112.818 59.426 110.788 61.2939L110.787 61.2949C110.01 62.014 109.032 62.8084 107.047 64.4307C105.195 65.9422 104.335 66.582 103.148 67.1641C102.52 67.472 101.813 67.8189 101.223 68.042C101.03 68.1148 100.862 68.1681 100.722 68.2041C100.724 68.2006 100.727 68.1969 100.73 68.1934C100.946 67.8811 101.325 67.4571 101.859 66.9258C102.92 65.8681 104.503 64.4705 106.355 62.834C110.041 59.5767 114.765 55.4012 118.349 51.249C118.484 51.0989 119.235 50.2248 120.295 49.3984C121.373 48.5577 122.674 47.8432 123.906 47.8809ZM35.4592 109.614L35.2649 109.636C34.5405 109.748 33.913 110.023 33.4348 110.472C32.9545 110.923 32.6545 111.521 32.5403 112.225C32.407 113.041 32.6707 114.016 33.1526 114.768C33.602 115.469 34.3256 116.097 35.2415 116.125L35.427 116.122C36.8797 116.039 38.2699 115.21 38.6135 113.734C38.8405 112.762 38.4612 111.677 37.8567 110.893C37.2939 110.162 36.4243 109.555 35.4592 109.614Z" fill="#FFB52B" stroke="#FFB52B"/>
<path d="M35.6906 113.118C35.7989 113.144 35.8927 113.21 35.9553 113.301C36.0338 113.452 36.0932 113.675 36.091 113.872C36.0899 113.971 36.0734 114.04 36.0558 114.081C36.0509 114.092 36.0447 114.099 36.0412 114.104C35.9151 114.143 35.7802 114.144 35.6545 114.101C35.5172 114.054 35.4008 113.961 35.3244 113.839C35.2504 113.697 35.2174 113.527 35.2326 113.389C35.2475 113.254 35.298 113.2 35.343 113.175L35.3508 113.172L35.3586 113.167C35.4586 113.108 35.5778 113.091 35.6906 113.118Z" fill="#FFB52B" stroke="#FFB52B"/>
<path d="M38.3239 49.476C38.9419 49.0881 39.63 48.9646 40.9821 49.2319C42.3608 49.5045 44.3313 50.1632 47.4577 51.2524C51.6133 52.7024 53.6823 53.4237 56.3005 54.4018L56.3044 54.4028C57.1948 54.7266 60.3448 55.8484 66.6354 58.0688C76.4435 61.5328 92.6733 66.7231 98.2888 68.5053C97.8576 69.128 97.3311 69.6806 96.7243 70.1381C94.7551 71.6019 92.3242 71.6977 90.2712 71.3696C88.2253 71.0426 86.6396 70.3066 86.4509 70.2162L85.9977 69.9995L85.7829 70.4545C85.3689 71.3323 84.6225 72.7504 83.489 74.0688C82.4259 75.3052 81.0428 76.4311 79.2956 76.9594L78.9411 77.0571C76.9147 77.5585 75.1419 77.0823 73.1755 76.3715L72.319 76.0551C63.8512 72.8688 59.8255 71.1445 56.7048 69.9526C50.0785 67.4219 45.7775 65.8183 43.1325 64.8471C41.8101 64.3615 40.9015 64.0339 40.3229 63.8276L39.5427 63.5522C39.5264 63.5465 39.5137 63.5423 39.5056 63.5395C39.5017 63.5382 39.4988 63.5372 39.4968 63.5366L39.4948 63.5356H39.4938C38.4579 63.1792 37.2765 62.7793 36.2663 62.1987C35.3194 61.6544 34.5886 60.988 34.2595 60.1196L34.1999 59.9438C34.0377 59.3842 34.0884 58.7223 34.3923 57.7348C34.6985 56.7398 35.236 55.4905 35.9743 53.7748C36.5546 52.4278 36.9772 51.4462 37.3552 50.7358C37.7371 50.0181 38.0337 49.6568 38.3229 49.476H38.3239ZM40.5446 49.6557C40.3064 49.5983 40.0544 49.6221 39.8298 49.725C39.5733 49.8426 39.3718 50.0547 39.2673 50.3168L39.2663 50.3207L38.8835 51.3041L38.8825 51.3071C38.8308 51.4428 38.8066 51.5876 38.8112 51.7328C38.8158 51.8781 38.8486 52.0215 38.9089 52.1537C38.9691 52.2859 39.0553 52.4047 39.1618 52.5034C39.2684 52.6021 39.3936 52.6789 39.53 52.7289L39.5339 52.7299L86.0309 69.3725L86.0358 69.3735C86.1903 69.4271 86.3548 69.4453 86.5173 69.4272C86.6797 69.4091 86.8365 69.3552 86.9753 69.269C87.114 69.1828 87.2319 69.0666 87.32 68.9291C87.4082 68.7915 87.4647 68.6353 87.485 68.4731L87.6403 67.2387L87.6413 67.2338C87.6695 66.9881 87.6135 66.7399 87.4831 66.5297C87.3526 66.3195 87.1544 66.1594 86.9216 66.0756L86.9196 66.0746L40.6491 49.687L40.6452 49.686L40.5446 49.6557Z" fill="#FFB52B" stroke="#FFB52B"/>
<path d="M113.169 75.2303C115.411 76.2476 117.739 77.2471 120.153 78.2264L120.155 78.2274C121.446 78.7435 122.726 79.2412 123.991 79.7216V79.7225C124.334 79.8589 124.648 80.0201 124.934 80.201C124.707 80.1217 124.472 80.076 124.232 80.076C122.674 80.0762 121.607 81.2343 121.185 82.5614C120.87 83.5509 121.217 84.6392 121.847 85.4198C120.061 84.6811 118.249 83.9054 116.41 83.0897H116.411C113.708 81.8854 111.107 80.6718 108.605 79.454C109.118 78.6762 109.711 77.9594 110.373 77.3124L110.418 77.3827C110.976 78.2599 111.66 79.0514 112.446 79.7313L112.777 80.0175L113.105 79.7274C113.455 79.4174 113.745 79.0463 113.963 78.6327L113.964 78.6307C114.217 78.1457 114.362 77.6115 114.391 77.0653L114.404 76.7968L114.188 76.6376C113.943 76.4567 113.679 76.2764 113.397 76.0975H113.396C113.104 75.9129 112.817 75.7495 112.542 75.6005C112.747 75.4715 112.956 75.348 113.169 75.2303Z" fill="#FFB52B" stroke="#FFB52B"/>
<path d="M124.233 82.1996C124.493 82.1996 124.834 82.3523 125.132 82.641C125.43 82.9296 125.596 83.2693 125.607 83.5316C125.631 84.1633 125.142 84.6011 124.432 84.7279L124.431 84.7289C124.085 84.7915 123.644 84.6291 123.263 84.2465C122.888 83.869 122.657 83.3572 122.673 82.8832V82.8773C122.677 82.7151 122.774 82.5542 123.092 82.4105C123.411 82.2667 123.845 82.1996 124.233 82.1996Z" fill="#FFB52B" stroke="#FFB52B"/>
<path d="M141.26 81.6954C142.354 81.2005 142.979 81.075 143.476 81.377C143.778 81.5608 144.038 81.9042 144.193 82.3301C144.329 82.7022 144.368 83.0962 144.31 83.4327L144.28 83.5723V83.5733C144.156 84.0422 143.799 84.4601 143.214 84.8292C142.629 85.1978 141.862 85.4873 141.013 85.7139C139.315 86.1669 137.404 86.3383 136.231 86.4434C133.755 86.657 131.262 86.5056 128.83 85.9962L129.285 83.0499C132.551 84.0305 135.071 83.8869 136.925 83.4366L137.293 83.3409C138.898 82.8953 140.236 82.1583 141.26 81.6954Z" fill="#FFB52B" stroke="#FFB52B"/>
<path d="M22.16 35.2595C17.5636 40.3188 5.41198 55.0407 2.24678 78.0314C-0.995476 101.611 7.18449 119.548 10.2836 125.612" stroke="#FFB52B" stroke-width="3" stroke-miterlimit="10"/>
<path d="M150.251 35.2595C154.845 40.3273 167.001 55.0266 170.164 78.0314C173.407 101.611 165.226 119.548 162.129 125.612" stroke="#FFB52B" stroke-width="3" stroke-miterlimit="10"/>
<path d="M44.3324 14.0978L43.7621 14.4269C42.7781 13.6664 41.6862 13.0546 40.5209 12.6164C39.0861 12.0422 37.8383 11.8617 36.8685 12.2551H36.8676C36.4936 12.4076 36.013 12.6288 35.4379 12.9191C34.8835 13.199 34.3305 13.4719 33.8597 13.758L30.1937 15.8654L29.7601 16.1154L30.0092 16.549L35.3207 25.7824L35.5697 26.215L36.0023 25.966L38.3441 24.6223L38.3431 24.6213C38.9733 24.2734 39.5492 23.8354 40.0511 23.3195L40.0609 23.3098C40.5216 22.8089 40.8465 22.198 41.0052 21.5363L41.0082 21.5256L41.0101 21.5139C41.1367 20.8477 41.137 20.1638 41.0131 19.4973C40.9517 18.9397 40.8354 18.3901 40.6644 17.8566L41.1332 17.5871L46.3363 26.6359L45.8715 26.9016C45.4657 26.4258 45.0051 25.9992 44.4984 25.631C43.9883 25.2013 43.4184 24.8478 42.806 24.5832L42.7826 24.5734L42.7582 24.5656C42.1314 24.3671 41.4639 24.3347 40.8207 24.4709H40.8187C40.0827 24.6305 39.3774 24.9107 38.7328 25.3L36.392 26.6447L35.9584 26.8937L36.2074 27.3273L40.6898 35.1252V35.1262C40.9276 35.5583 41.2673 35.9259 41.6791 36.1974L41.6967 36.2092L41.7152 36.2189C42.1936 36.4801 42.7469 36.5678 43.2826 36.4689L43.2836 36.4699C43.7121 36.4018 44.1332 36.2915 44.5404 36.1418L44.5394 36.1408C44.879 36.0251 45.2106 35.8986 45.5345 35.7609L45.806 36.2346L33.9564 43.049L33.6859 42.5764C33.9196 42.4053 34.1931 42.2059 34.5052 41.9767C34.9024 41.7083 35.2632 41.3899 35.5814 41.0314L35.5824 41.0324C35.9399 40.636 36.1475 40.1264 36.1683 39.593L36.1693 39.5695L36.1674 39.5471C36.144 39.1013 36.022 38.6671 35.8109 38.2756L35.7152 38.1105L26.1654 21.5119C25.9403 21.1035 25.6247 20.7519 25.2426 20.4846L25.2269 20.4738L25.2113 20.465L25.0277 20.3654C24.6513 20.1841 24.2332 20.1067 23.8168 20.1408L23.6088 20.1672C23.2243 20.2221 22.8441 20.3032 22.4711 20.4103L22.0961 20.5275C21.7428 20.6408 21.4391 20.7432 21.1869 20.8342L20.9056 20.3478L41.2162 8.67108L44.3324 14.0978Z" fill="#FFB52B" stroke="#FFB52B"/>
<path d="M65.3105 2.2439C68.7551 7.7398 71.4668 12.0982 73.4462 15.3191C75.4619 18.5989 77.1653 21.3132 78.5546 23.4607L78.5556 23.4617C78.8049 23.8435 79.106 24.189 79.4511 24.4871L79.4628 24.4958C79.8742 24.8316 80.3407 25.0936 80.8417 25.2693L80.8437 25.2703C81.3092 25.4313 81.7967 25.5191 82.289 25.533V25.5339C82.591 25.5484 82.8934 25.5458 83.1953 25.531L83.29 26.0681L69.6747 28.4548L69.581 27.9177C70.2402 27.7256 70.8889 27.4992 71.5234 27.2361L71.5244 27.2371C71.9811 27.0542 72.357 26.8637 72.6201 26.6599C72.8422 26.4878 73.1213 26.1953 73.0888 25.7966L73.0781 25.7156C73.053 25.5759 73.0165 25.4384 72.9697 25.3044H72.9706L72.9658 25.2917L72.9033 25.1404C72.8587 25.0406 72.8086 24.9434 72.7529 24.8494L72.665 24.7107L69.4257 19.5671L69.247 19.283L68.916 19.3406L59.6708 20.9636L59.3427 21.0212L59.2695 21.3464C59.1434 21.9067 59.0161 22.5619 58.8808 23.2937C58.8131 23.6598 58.7498 24.0098 58.6923 24.3406L58.538 25.2625C58.4375 25.8187 58.3832 26.3827 58.3759 26.948V26.9617C58.3794 27.206 58.3982 27.4499 58.4306 27.6921L58.4316 27.7019L58.4326 27.7107C58.5534 28.4162 59.1841 28.7879 59.9003 28.9773C60.574 29.1554 61.5356 29.1893 62.7665 29.1062L62.8593 29.6384L52.8603 31.3943L52.7675 30.865C53.104 30.7669 53.4356 30.6528 53.7607 30.5212C54.2305 30.3507 54.668 30.1013 55.0527 29.782L55.0576 29.7781C55.5478 29.3609 55.9596 28.8593 56.2724 28.2966L56.2744 28.2927C56.5912 27.7117 56.8168 27.0855 56.9453 26.4363L56.9462 26.4373C57.7836 22.6581 58.624 18.864 59.4687 15.0554C60.2933 11.3373 61.2028 7.24837 62.1972 2.78979L65.3105 2.2439ZM61.8329 9.00952L59.7119 19.3582L59.5634 20.0779L60.288 19.9509L67.9785 18.6013L68.706 18.4734L68.3173 17.8455L62.747 8.84644L62.0849 7.77612L61.8329 9.00952Z" fill="#FFB52B" stroke="#FFB52B"/>
<path d="M91.1461 0.580078L104.892 3.04785C106.493 3.34981 108.055 3.82928 109.55 4.47559L109.553 4.47656C111.217 5.18489 112.738 6.19105 114.041 7.44531L114.044 7.44824C115.351 8.68742 116.358 10.2068 116.989 11.8906L117.11 12.2295L117.112 12.2334C117.764 14.0927 117.879 16.2701 117.427 18.7832C117.056 20.8445 116.351 22.5645 115.326 23.959L115.117 24.2334L115.115 24.2363C114.01 25.6513 112.594 26.7924 110.977 27.5723C109.274 28.3534 107.446 28.8294 105.578 28.9766H105.574C103.814 29.131 102.044 29.0812 100.297 28.8281L99.5513 28.707L86.5484 26.375L86.6451 25.8623C86.9662 25.8992 87.3294 25.9338 87.7339 25.9629V25.9619C88.1817 26.0178 88.6351 26.0182 89.0826 25.96L89.0904 25.959L89.0992 25.957C89.6293 25.8692 90.1129 25.6024 90.4703 25.2012L90.483 25.1885L90.4937 25.1738C90.7928 24.7853 90.9879 24.3264 91.0621 23.8418L94.4683 4.85352L94.4673 4.85254C94.5567 4.38363 94.5425 3.90103 94.4244 3.43848L94.4205 3.42188L94.4156 3.40625L94.3404 3.20801C94.1491 2.76453 93.8237 2.39054 93.4088 2.1377H93.4097C92.9263 1.8076 92.398 1.54817 91.8414 1.36719H91.8404C91.5404 1.26861 91.2767 1.18502 91.0504 1.11621L91.1461 0.580078ZM100.586 3.60254L96.942 23.9258C96.8515 24.3828 96.8372 24.8521 96.9019 25.3135L96.9039 25.3232C96.9776 25.781 97.1662 26.2126 97.4527 26.5771V26.5762C97.7544 26.9632 98.134 27.2826 98.567 27.5137L98.5757 27.5186C99.1299 27.8001 99.7264 27.9899 100.341 28.0801V28.0791C101.67 28.3507 103.044 28.3005 104.348 27.9307V27.9316L104.361 27.9277C105.566 27.5535 106.644 26.8524 107.475 25.9033L107.478 25.9004C108.371 24.8647 109.076 23.6802 109.561 22.4014L109.56 22.4004C110.155 20.8417 110.595 19.2283 110.871 17.583L110.869 17.582C111.147 16.1204 111.264 14.6333 111.213 13.1475L111.182 12.5088C111.095 11.0566 110.745 9.63224 110.15 8.30469L110.148 8.2998C109.593 7.09357 108.753 6.04027 107.702 5.22949V5.22852L107.697 5.22559L107.487 5.07227C106.426 4.32391 105.207 3.82542 103.923 3.61621C103.479 3.53849 102.975 3.4587 102.413 3.37598H102.414C101.859 3.2928 101.422 3.23455 101.146 3.19629L100.67 3.12988L100.586 3.60254Z" fill="#FFB52B" stroke="#FFB52B"/>
<path d="M146.217 22.2462L143.05 27.2823L142.527 26.9532C142.715 25.7917 142.713 24.6067 142.513 23.4454H142.512C142.294 22.0183 141.835 20.8908 141.075 20.1437L141.068 20.1359L140.75 19.8517C140.426 19.5748 140.083 19.3207 139.723 19.0919C139.442 18.9038 139.184 18.7321 138.947 18.5782L138.298 18.1642L134.955 16.0656L134.531 15.7999L134.266 16.2238L128.694 25.1105L128.428 25.5333L128.851 25.799L131.22 27.2863C131.802 27.6597 132.434 27.9506 133.097 28.1495L133.108 28.1525C133.792 28.3416 134.514 28.3505 135.202 28.1779L135.214 28.1749L135.226 28.171C135.859 27.9785 136.452 27.6692 136.972 27.2589L136.971 27.2579C137.431 26.9343 137.862 26.5713 138.261 26.1749L138.727 26.4679L133.232 35.2306L132.769 34.9396C132.97 34.3764 133.126 33.7969 133.229 33.2072C133.387 32.5441 133.436 31.8595 133.369 31.1808L133.367 31.1622L133.364 31.1447L133.312 30.8907C133.168 30.3036 132.885 29.7582 132.485 29.3019L132.479 29.296L132.294 29.0988C131.854 28.6477 131.358 28.2534 130.82 27.9259L128.454 26.4454L128.03 26.1798L127.765 26.6036L123.61 33.2306C123.226 33.8078 122.913 34.4285 122.675 35.0792L122.674 35.0831C122.486 35.6104 122.486 36.1868 122.674 36.714L122.679 36.7286L122.686 36.7433C122.904 37.2532 123.25 37.6983 123.689 38.0372V38.0382C124.297 38.5265 124.937 38.9743 125.604 39.38C125.986 39.6184 126.446 39.8938 126.981 40.2062V40.2072C127.467 40.5035 127.971 40.7715 128.487 41.0118C128.97 41.2406 129.469 41.4341 129.981 41.589V41.588C130.38 41.7268 130.804 41.771 131.222 41.7159L131.421 41.6827L131.439 41.6779C132.605 41.3526 133.731 40.8958 134.796 40.3185C135.7 39.8836 136.571 39.3837 137.404 38.8253L137.863 39.1134L133.507 45.1984L112.727 32.1622L113.012 31.7081C113.27 31.8368 113.572 31.9834 113.919 32.1456V32.1466C114.35 32.3656 114.805 32.5336 115.275 32.6486L115.279 32.6505C115.808 32.7743 116.363 32.7124 116.851 32.4757L116.876 32.463L116.901 32.4484C117.314 32.1872 117.658 31.8307 117.905 31.4093L128.087 15.173C128.348 14.789 128.521 14.352 128.594 13.8937L128.596 13.8859L128.597 13.8781C128.662 13.3653 128.437 12.8268 128.09 12.3058L128.083 12.297L127.85 11.9806C127.61 11.674 127.346 11.3872 127.06 11.1222H127.061C126.787 10.8561 126.546 10.6319 126.343 10.4493L126.644 9.96985L146.217 22.2462Z" fill="#FFB52B" stroke="#FFB52B"/>
<path d="M41.5937 139.393C44.5557 141.591 46.2601 143.574 46.8437 145.328C47.4188 147.056 47.1128 148.753 45.8525 150.465L45.8466 150.472C45.3443 151.181 44.691 151.768 43.9345 152.195C43.2286 152.573 42.4488 152.792 41.6494 152.836H41.6474C40.8127 152.884 39.9751 152.813 39.1601 152.627H39.1572C38.2194 152.417 37.3005 152.13 36.4101 151.769L36.0517 151.624L35.8212 151.935L35.5761 152.265L35.3124 152.621L35.6328 152.925C36.3782 153.635 37.0401 154.428 37.6064 155.288L37.6113 155.294C38.1819 156.128 38.6194 157.046 38.9081 158.014C39.1633 158.955 39.2169 159.938 39.0654 160.901C38.8824 161.983 38.4332 163.003 37.7587 163.87L37.7509 163.88L37.7431 163.892C37.0107 164.946 36.0263 165.8 34.8808 166.379C33.8716 166.85 32.7499 167.025 31.6454 166.882L31.6425 166.881C30.4631 166.734 29.3138 166.409 28.2333 165.919L27.7744 165.698C26.2195 164.907 24.7385 163.978 23.3495 162.922L23.3447 162.919L12.3915 154.811L12.8378 154.209C13.1111 154.363 13.4246 154.537 13.7783 154.73V154.729C14.1843 154.974 14.6208 155.164 15.0771 155.293L15.0829 155.294C15.6254 155.441 16.2021 155.391 16.7119 155.155L16.7324 155.145L16.7529 155.133C17.2214 154.862 17.6228 154.49 17.9306 154.044L17.9316 154.045L30.8398 136.623C31.1521 136.225 31.3865 135.771 31.5312 135.286L31.54 135.255L31.5458 135.224C31.6403 134.65 31.5209 134.063 31.2148 133.569H31.2167C30.9683 133.109 30.6696 132.677 30.3281 132.282C30.0912 132.001 29.8681 131.748 29.662 131.52L30.1279 130.892L41.5937 139.393ZM28.9833 148.864L22.2704 157.921L22.2333 157.971L22.2089 158.03C22.0703 158.37 22.0045 158.737 22.0156 159.104C22.0267 159.472 22.1145 159.833 22.2734 160.165V160.164C22.6092 160.938 23.1518 161.603 23.8408 162.09V162.091C24.462 162.577 25.1879 162.912 25.9609 163.068C26.7294 163.223 27.5232 163.196 28.2802 162.993L28.2812 162.994C29.8243 162.616 31.2142 161.565 32.4667 159.931H32.4775L32.6269 159.729C33.954 157.94 34.5484 156.158 34.3046 154.404C34.0604 152.648 32.9986 151.115 31.2285 149.798C31.0216 149.644 30.7482 149.456 30.4111 149.232C30.0738 149.008 29.8191 148.843 29.6513 148.738L29.2587 148.492L28.9833 148.864ZM37.0771 137.968L30.2646 147.139L29.9667 147.541L30.3681 147.838L31.1669 148.431C32.8866 149.715 34.5805 150.262 36.2167 149.932C37.8164 149.61 39.192 148.626 40.3495 147.056L40.9365 146.259H40.872C41.5694 145.088 41.8916 143.916 41.789 142.752C41.6607 141.296 40.8183 140.038 39.3867 138.968C39.1822 138.816 38.9095 138.628 38.5908 138.407L38.582 138.402L37.3603 137.587L37.0771 137.968Z" fill="#FFB52B" stroke="#FFB52B"/>
<path d="M63.0658 149.717L62.8431 150.425C62.5702 150.365 62.2718 150.301 61.9535 150.237H61.9545C61.4702 150.133 60.9762 150.08 60.4808 150.08H60.4711C60.1845 150.075 59.9005 150.134 59.639 150.252C59.3741 150.371 59.1388 150.547 58.9506 150.768L58.9388 150.782C58.6189 151.186 58.3791 151.648 58.2308 152.141C56.1594 158.506 54.0853 164.872 52.0101 171.239L52.0082 171.246L52.0062 171.254C51.9244 171.532 51.7887 172.042 51.7582 172.581C51.729 173.097 51.7884 173.771 52.2357 174.25V174.251C52.4904 174.524 52.7931 174.628 53.3246 174.816V174.815C54.0527 175.076 54.6942 175.287 55.2152 175.454L56.6488 175.944C57.0993 176.115 57.764 176.351 58.5502 176.593C59.4069 176.859 59.9437 177.023 60.3881 177.026H60.392C61.5923 177.026 62.4539 176.287 63.3744 175.536L63.3773 175.534C64.1755 174.871 64.883 174.106 65.4857 173.262L66.0834 173.21L63.1127 181.167L41.9369 173.462L42.1595 172.758C42.4682 172.827 42.8078 172.898 43.1761 172.967C43.5788 173.06 43.9914 173.105 44.4047 173.1H44.4213C44.9635 173.075 45.4765 172.845 45.8568 172.458L45.8695 172.445L45.8802 172.432C46.2282 172.024 46.4822 171.545 46.6263 171.029L46.6273 171.03L53.1127 150.481C53.2749 150.01 53.3514 149.514 53.3383 149.016L53.3373 148.987L53.3334 148.958L53.2933 148.747C53.1828 148.269 52.9367 147.831 52.5834 147.487H52.5844C52.2285 147.105 51.8262 146.769 51.3871 146.487C51.0931 146.298 50.8328 146.137 50.6088 146L50.8392 145.27L63.0658 149.717Z" fill="#FFB52B" stroke="#FFB52B"/>
<path d="M84.8646 159.188L80.889 170.298L80.6507 170.964L81.3587 170.966L89.1702 170.993L89.8743 170.996L89.6448 170.331L85.8079 159.193L85.3441 157.848L84.8646 159.188ZM92.3138 179.359C92.3058 179.087 92.2835 178.815 92.2464 178.546L92.2435 178.533L92.1585 178.07C92.0961 177.763 92.0226 177.457 91.9378 177.155L91.803 176.704C91.7112 176.393 91.6099 176.061 91.4993 175.708L91.1351 174.572C90.8755 173.774 90.6397 173.074 90.4222 172.474L90.303 172.146L89.9534 172.144L80.5609 172.109L80.2103 172.107L80.0892 172.436L77.7474 178.799C77.664 179.016 77.6008 179.241 77.5579 179.47L77.555 179.483L77.553 179.496C77.5335 179.644 77.5223 179.792 77.5189 179.941V179.953C77.5189 180.386 77.8268 180.671 78.1126 180.841C78.4105 181.018 78.8176 181.155 79.3001 181.266V181.266C79.9712 181.437 80.6523 181.566 81.3392 181.654V182.401L67.5296 182.351L67.5325 181.617C67.8384 181.575 68.1422 181.519 68.4417 181.443L68.4407 181.442C68.9343 181.33 69.4059 181.136 69.8343 180.866L69.8333 180.865C70.3079 180.567 70.7262 180.187 71.0667 179.741L71.0735 179.731C71.3633 179.333 71.5998 178.898 71.7757 178.437V178.436C72.7838 175.776 74.0037 172.422 75.4349 168.377C76.8421 164.399 78.7829 159.008 81.2562 152.204H84.386C86.1243 156.999 87.7138 161.388 89.1536 165.372L93.5609 177.597C93.76 178.193 94.0332 178.762 94.3734 179.291L94.5247 179.516C94.9171 180.081 95.4102 180.569 95.9798 180.954L95.9857 180.958C96.4204 181.243 96.9066 181.442 97.4163 181.543V181.542C97.7532 181.625 98.0941 181.689 98.4378 181.734V182.475L88.2864 182.44V181.693C89.5201 181.55 90.4778 181.328 91.1136 180.997L91.1155 180.996C91.8043 180.635 92.3136 180.111 92.3138 179.375V179.359Z" fill="#FFB52B" stroke="#FFB52B"/>
<path d="M114.279 149.306C116.198 149.249 118.109 149.558 119.911 150.218C121.723 150.917 123.354 152.017 124.682 153.434L124.684 153.437C126.093 154.916 127.211 156.853 128.026 159.265C128.949 162.024 129.243 164.482 128.937 166.65L128.881 167.039C128.58 168.951 127.857 170.772 126.761 172.37L126.759 172.372C125.721 173.904 124.391 175.216 122.844 176.232C121.649 177.015 120.373 177.667 119.038 178.173L118.462 178.381L105.222 182.827L104.984 182.119C105.198 182.016 105.449 181.895 105.733 181.752L105.739 181.748C106.266 181.472 106.748 181.116 107.166 180.693L107.165 180.692C107.594 180.293 107.866 179.754 107.928 179.171L107.929 179.161V179.15C107.958 178.693 107.906 178.235 107.777 177.796L107.718 177.609L100.797 156.922C100.64 156.416 100.373 155.952 100.013 155.563L100.004 155.553L99.838 155.404C99.4601 155.095 98.9957 154.905 98.506 154.864L98.4923 154.863H98.4777C98.1268 154.853 97.7761 154.88 97.4318 154.945L97.1163 155.015C96.7157 155.097 96.3572 155.178 96.0421 155.259L95.8077 154.577L108.333 150.382L108.336 150.381C110.251 149.726 112.255 149.363 114.278 149.306H114.279ZM113.068 150.723C111.79 150.527 110.482 150.653 109.265 151.095C108.665 151.271 108.103 151.556 107.605 151.934L107.598 151.939L107.592 151.944C107.197 152.264 106.877 152.667 106.655 153.124L106.654 153.125C106.44 153.57 106.335 154.059 106.349 154.552L106.35 154.559C106.371 155.073 106.468 155.582 106.639 156.068L114.046 178.211L114.196 178.658L114.651 178.535C114.932 178.458 115.344 178.338 115.887 178.179C116.435 178.019 116.927 177.868 117.36 177.722L117.359 177.721C118.701 177.295 119.904 176.515 120.837 175.461L120.843 175.454C121.754 174.389 122.392 173.118 122.702 171.75V171.747C123.005 170.377 123.106 168.97 123.004 167.572L122.948 166.974C122.768 165.313 122.425 163.674 121.925 162.08L121.701 161.4C121.125 159.615 120.391 157.885 119.51 156.229C118.805 154.891 117.893 153.673 116.808 152.62L116.807 152.619L116.623 152.449C115.693 151.615 114.561 151.035 113.338 150.769L113.331 150.768L113.324 150.766L113.068 150.723Z" fill="#FFB52B" stroke="#FFB52B"/>
<path d="M148.842 136.224L148.419 136.535C147.488 135.954 146.519 135.435 145.521 134.979H145.522C144.349 134.375 143.115 133.901 141.84 133.563L141.824 133.559L141.809 133.556L141.619 133.526C141.183 133.472 140.739 133.529 140.329 133.691C139.821 133.872 139.328 134.094 138.857 134.356C138.479 134.56 138.112 134.782 137.755 135.021L137.401 135.265C136.889 135.633 136.453 135.946 136.094 136.206C135.616 136.547 135.158 136.916 134.722 137.308L134.292 137.709C133.874 138.101 133.573 138.603 133.425 139.157L133.42 139.174L133.416 139.193C133.306 139.775 133.39 140.376 133.652 140.907V140.908C133.946 141.518 134.296 142.099 134.696 142.644L134.871 142.876L140.145 149.997L140.442 150.397L140.843 150.101L143.091 148.449V148.448C143.675 148.017 144.185 147.495 144.601 146.9L144.607 146.891C145.006 146.292 145.227 145.592 145.241 144.872L145.242 144.856L145.241 144.841C145.211 144.095 145.063 143.358 144.805 142.657C144.612 142.009 144.366 141.379 144.071 140.772L144.502 140.453L151.568 149.968L151.132 150.29C150.798 149.988 150.449 149.703 150.084 149.44L149.595 149.105C149.023 148.687 148.385 148.369 147.707 148.165L147.693 148.161L147.679 148.158L147.408 148.102C146.774 147.995 146.122 148.037 145.505 148.229L145.489 148.235C144.909 148.437 144.36 148.717 143.857 149.068L143.65 149.218L141.401 150.872L140.997 151.168L141.296 151.572L148.357 161.106L148.653 161.507L149.056 161.209L152.226 158.863H152.227L152.233 158.859C152.591 158.585 153.041 158.244 153.582 157.817C154.038 157.473 154.456 157.082 154.828 156.65L154.834 156.643C155.529 155.807 155.841 154.571 155.86 153.032C155.897 151.742 155.73 150.456 155.37 149.219L155.857 148.86L159.934 154.375L141.367 168.126L140.908 167.505C141.095 167.301 141.316 167.05 141.566 166.752L141.565 166.751C141.914 166.353 142.216 165.914 142.464 165.446C142.758 164.95 142.876 164.369 142.793 163.797L142.788 163.762L142.778 163.728L142.721 163.548C142.579 163.137 142.37 162.752 142.102 162.408H142.103L129.176 144.976C128.871 144.535 128.474 144.164 128.013 143.889L127.991 143.876L127.969 143.866C127.455 143.625 126.874 143.57 126.324 143.71L126.317 143.712L126.31 143.714C125.846 143.848 125.401 144.04 124.985 144.286C124.636 144.473 124.334 144.644 124.079 144.792L123.64 144.197L143.361 129.601L148.842 136.224Z" fill="#FFB52B" stroke="#FFB52B"/>
<path d="M91.3677 112.892H91.3804C92.8836 112.892 94.0497 113.246 94.9224 113.909V113.91L94.9331 113.917C95.3367 114.207 95.6636 114.591 95.8843 115.035C96.1049 115.479 96.2135 115.969 96.2007 116.464L96.1997 116.475V116.485C96.2142 117.403 95.9404 118.304 95.4155 119.06L95.4146 119.06C94.8899 119.82 93.9812 120.6 92.6411 121.388L92.1499 121.676L92.4995 122.126C93.6002 123.541 94.4577 124.608 95.0679 125.325C95.6715 126.035 96.473 126.972 97.4722 128.136L97.8911 128.624L98.2603 128.097C98.8493 127.256 99.3498 126.357 99.7515 125.414L99.7505 125.413C100.057 124.733 100.234 124.003 100.271 123.259L100.272 123.246V123.233C100.272 122.699 99.9164 122.347 99.4761 122.124L99.272 122.031L98.7817 121.859C98.4223 121.742 98.0568 121.645 97.687 121.566V121.329H105.181V121.519C104.616 121.578 104.056 121.681 103.507 121.829L103.49 121.834L103.471 121.841C102.892 122.046 102.372 122.391 101.958 122.845L101.954 122.85C101.674 123.164 101.432 123.509 101.232 123.879C100.963 124.338 100.707 124.78 100.461 125.206L100.459 125.21C100.17 125.722 99.8576 126.259 99.5229 126.821C99.1661 127.418 98.7726 127.993 98.3442 128.541L98.0972 128.857L98.353 129.167C99.0809 130.049 99.8631 130.885 100.696 131.67C101.174 132.121 101.702 132.515 102.271 132.845L102.285 132.852L102.299 132.86C102.864 133.142 103.466 133.342 104.087 133.456V133.455C104.61 133.562 105.138 133.641 105.668 133.691V133.938H97.4585C97.2418 133.695 96.9781 133.397 96.6685 133.042L96.6655 133.039L96.1382 132.43C95.9768 132.238 95.8295 132.057 95.6958 131.889L95.354 131.458L94.9575 131.839C94.0683 132.693 93.0283 133.38 91.8921 133.865C90.8709 134.273 89.7806 134.481 88.6802 134.477H88.6782C86.878 134.477 85.446 133.997 84.3413 133.072L84.3374 133.069L84.144 132.9C83.7038 132.495 83.3487 132.006 83.1011 131.461C82.8182 130.838 82.6823 130.159 82.7046 129.477L82.7056 129.463V129.448C82.6905 128.796 82.7896 128.146 83.0015 127.529C83.2298 126.945 83.5572 126.404 83.9673 125.928L83.9712 125.922C84.4342 125.369 84.9801 124.89 85.5894 124.501H85.5903C86.3114 124.04 87.0659 123.633 87.8481 123.284L88.4526 123.015L88.0288 122.507C87.3939 121.746 86.8412 120.922 86.3794 120.048L86.187 119.67C85.8651 118.953 85.6981 118.177 85.6978 117.393C85.6978 116.11 86.225 115.054 87.3257 114.196C88.4833 113.315 89.9098 112.854 91.3677 112.892ZM88.0269 123.441C87.4411 124.008 86.9997 124.706 86.7397 125.477C86.4868 126.208 86.3565 126.976 86.354 127.75V127.751C86.354 129.21 86.8281 130.439 87.7964 131.393L87.7983 131.394C88.2782 131.863 88.8483 132.229 89.4741 132.472C90.0219 132.684 90.6027 132.797 91.189 132.808L91.4409 132.806C92.033 132.815 92.6231 132.727 93.187 132.547L93.1978 132.544L93.2095 132.539C93.7962 132.32 94.3411 132.002 94.8198 131.6L95.2017 131.278L94.8813 130.895C94.0312 129.881 93.0406 128.696 91.9106 127.34C90.7825 125.986 89.7341 124.702 88.7651 123.489L88.4224 123.06L88.0269 123.441ZM92.0415 113.359C91.6889 113.35 91.3378 113.41 91.0093 113.539C90.67 113.672 90.3622 113.875 90.106 114.134H90.105L90.0962 114.143C89.845 114.411 89.6494 114.726 89.522 115.07C89.3947 115.414 89.3378 115.779 89.354 116.145V116.146C89.3872 116.92 89.6009 117.675 89.978 118.352C90.4935 119.317 91.0858 120.238 91.7495 121.108L92.0327 121.479L92.4224 121.223C93.2051 120.706 93.8454 120.002 94.2827 119.174L94.2837 119.171C94.6794 118.412 94.8879 117.571 94.8911 116.716V116.714C94.8911 115.807 94.681 115.023 94.2124 114.414L94.1147 114.295C93.8638 113.994 93.5475 113.753 93.1899 113.591C92.8297 113.428 92.4369 113.348 92.0415 113.359Z" fill="#FFB52B" stroke="#FFB52B"/>
</g>
<defs>
<filter id="filter0_n_235_589" x="0" y="0" width="172.411" height="183.46" filterUnits="userSpaceOnUse" color-interpolation-filters="sRGB">
<feFlood flood-opacity="0" result="BackgroundImageFix"/>
<feBlend mode="normal" in="SourceGraphic" in2="BackgroundImageFix" result="shape"/>
<feTurbulence type="fractalNoise" baseFrequency="5 5" stitchTiles="stitch" numOctaves="3" result="noise" seed="9795" />
<feColorMatrix in="noise" type="luminanceToAlpha" result="alphaNoise" />
<feComponentTransfer in="alphaNoise" result="coloredNoise1">
<feFuncA type="discrete" tableValues="1 1 1 1 1 1 1 1 1 1 1 1 1 1 1 1 1 1 1 1 1 1 1 1 1 1 1 1 1 1 1 1 1 1 1 1 1 1 1 1 1 1 1 1 1 1 1 1 1 1 1 0 0 0 0 0 0 0 0 0 0 0 0 0 0 0 0 0 0 0 0 0 0 0 0 0 0 0 0 0 0 0 0 0 0 0 0 0 0 0 0 0 0 0 0 0 0 0 0 0 "/>
</feComponentTransfer>
<feComposite operator="in" in2="shape" in="coloredNoise1" result="noise1Clipped" />
<feFlood flood-color="rgba(0, 0, 0, 0.25)" result="color1Flood" />
<feComposite operator="in" in2="noise1Clipped" in="color1Flood" result="color1" />
<feMerge result="effect1_noise_235_589">
<feMergeNode in="shape" />
<feMergeNode in="color1" />
</feMerge>
</filter>
</defs>
</svg>
