<svg width="25" height="24" viewBox="0 0 25 24" fill="none" xmlns="http://www.w3.org/2000/svg">
<path d="M11.239 0.690968C11.5384 -0.230343 12.8418 -0.230344 13.1412 0.690967L15.3333 7.43768C15.4672 7.8497 15.8511 8.12866 16.2843 8.12866H23.3783C24.347 8.12866 24.7498 9.36828 23.966 9.93768L18.2269 14.1074C17.8765 14.362 17.7298 14.8134 17.8637 15.2254L20.0558 21.9721C20.3552 22.8934 19.3007 23.6596 18.517 23.0902L12.7779 18.9205C12.4274 18.6658 11.9528 18.6658 11.6023 18.9205L5.86321 23.0902C5.0795 23.6596 4.02502 22.8934 4.32437 21.9721L6.51651 15.2254C6.65039 14.8134 6.50373 14.362 6.15324 14.1074L0.414145 9.93768C-0.369569 9.36828 0.0332058 8.12866 1.00193 8.12866H8.09584C8.52907 8.12866 8.91302 7.8497 9.0469 7.43768L11.239 0.690968Z" fill="#FFB52B"/>
</svg>
