<svg width="39" height="28" viewBox="0 0 39 28" fill="none" xmlns="http://www.w3.org/2000/svg">
<path d="M28.0225 6.12012C27.7717 6.46491 27.5152 6.81251 27.2549 7.15332L27.2539 7.1543C26.1905 8.55316 25.0606 9.87719 23.8701 11.1201L23.8691 11.1211C23.6555 11.3452 23.3354 11.6705 22.0801 12.832L20.4834 14.2988C19.0201 15.6356 18.112 16.4646 17.5713 16.9482L17.1465 17.3223C15.9142 18.3734 14.8213 19.1887 10.8369 21.8145C8.95721 23.0547 7.4477 23.9739 6.41113 24.6113C5.89654 24.9278 5.48811 25.1813 5.21289 25.3691C5.07791 25.4613 4.95576 25.5499 4.86621 25.6309C4.82388 25.6691 4.76537 25.7257 4.71777 25.7969C4.68801 25.8414 4.55871 26.0427 4.65039 26.2949V26.2959C4.72592 26.5029 4.89492 26.5893 4.98828 26.6201C5.0786 26.6499 5.16087 26.6513 5.20703 26.6504C5.30455 26.6485 5.40637 26.6287 5.48828 26.6094C5.66118 26.5685 5.87706 26.4978 6.0957 26.4189C6.38073 26.3161 6.69623 26.1875 6.97852 26.0684C6.93156 26.0968 6.89049 26.1228 6.85449 26.1445H6.85352C6.69646 26.2399 6.35325 26.4514 5.88379 26.6709L5.88086 26.6729C5.60883 26.8024 5.29426 26.9372 4.94336 27.0645C4.54229 27.2099 4.24265 27.3163 3.92188 27.3838L3.58887 27.4385C2.81407 27.5325 1.69453 27.6351 1.03027 26.7705L1.0293 26.7686C1.02645 26.7648 0.980983 26.7055 0.917969 26.6025C0.852529 26.4956 0.7699 26.3446 0.695312 26.1621C0.562977 25.8383 0.465842 25.4398 0.511719 25.0195L0.540039 24.8389C0.675297 24.194 1.10091 23.8381 1.59668 23.4385L1.5957 23.4375C1.74788 23.3162 2.01932 23.165 2.40234 22.9873C2.77778 22.8132 3.22956 22.6293 3.72168 22.4385C4.69031 22.063 5.83762 21.6532 6.75293 21.2754V21.2764C8.58723 20.5221 9.90013 19.7989 11.8604 18.7217C13.2635 17.9501 14.9358 17.0352 17.0508 15.6191C19.0153 14.3048 21.9115 12.347 25.0703 9.20898C26.0641 8.22146 27.2387 6.96247 27.7402 6.42578C27.8368 6.32233 27.9301 6.21966 28.0225 6.12012ZM3.78516 24.4873C3.57491 24.1621 3.14957 23.7489 2.58496 23.8525C2.27826 23.9093 2.00285 24.0523 1.79395 24.2861C1.63922 24.4594 1.53568 24.6659 1.47559 24.8906L1.42969 25.1211C1.37743 25.5031 1.47911 25.9396 1.66016 26.2764C1.82655 26.5857 2.17932 27.0126 2.72852 26.9746L2.72754 26.9736C3.35844 26.9306 3.93464 26.4999 4.07227 25.7949C4.1626 25.3332 4.0133 24.8402 3.78516 24.4873Z" fill="#F5F5F5" stroke="#F5F5F5"/>
<path d="M2.91211 25.606C2.86446 25.5868 2.80901 25.5892 2.76465 25.6099L2.82129 25.732L2.87012 25.7076M2.91211 25.606L2.87012 25.7076M2.91211 25.606C2.94748 25.6204 2.964 25.6409 2.9707 25.6509C2.96994 25.6533 2.96889 25.6559 2.96777 25.6588L2.87012 25.7076M2.91211 25.606L2.87012 25.7076M2.80566 25.7974C2.77441 25.8044 2.74096 25.8057 2.70605 25.7984L2.78418 25.7632L2.80566 25.7974ZM2.70605 25.6422L2.77832 25.7545L2.69336 25.7964C2.69188 25.7961 2.68996 25.7969 2.68848 25.7964C2.65009 25.7854 2.6234 25.7663 2.60449 25.7486C2.622 25.7181 2.65245 25.6767 2.70605 25.6422ZM2.9541 25.6861C2.93978 25.7109 2.91585 25.7413 2.87793 25.7681C2.86812 25.7745 2.85806 25.7808 2.84668 25.7857L2.82715 25.7437L2.9541 25.6861Z" fill="#F5F5F5" stroke="#F5F5F5"/>
<path d="M3.47998 1.82086C3.48832 1.86452 3.501 1.90762 3.51709 1.94977C3.54847 2.03189 3.59571 2.1116 3.65869 2.18121C3.72177 2.25084 3.80094 2.31041 3.89404 2.35114L3.89795 2.35309L18.8198 8.72028L18.769 8.85114C18.6378 9.18289 18.4063 9.70747 18.0591 10.189C17.7085 10.6753 17.2752 11.0689 16.7583 11.2222C16.1506 11.4014 15.6253 11.1956 14.854 10.8502C12.0805 9.60573 10.8262 8.96228 9.77588 8.48395C7.61876 7.50161 6.21748 6.87817 5.35498 6.50055C4.92371 6.31173 4.62656 6.18466 4.43701 6.10406C4.34233 6.06381 4.27458 6.03479 4.22998 6.01617C4.20778 6.00691 4.19123 6.00023 4.18018 5.99567C4.17475 5.99342 4.17035 5.99196 4.16748 5.99078C4.16604 5.99019 4.16437 5.98916 4.16357 5.98883C3.81928 5.8476 3.4711 5.70609 3.17822 5.50543C2.89505 5.31136 2.70772 5.0908 2.63428 4.81207C2.59654 4.65835 2.60026 4.45195 2.69482 4.08551C2.79037 3.71531 2.95965 3.24536 3.20166 2.57477C3.3097 2.27574 3.40106 2.02772 3.47998 1.82086ZM19.9438 7.2984C21.0332 7.71826 21.9898 8.08448 22.6616 8.33942C22.5829 8.43902 22.5001 8.53164 22.4097 8.61285C21.8812 9.07959 21.2236 9.12315 20.6157 9.00739C20.2385 8.93549 19.9126 8.80535 19.7075 8.71149C19.7852 8.64908 19.8464 8.57393 19.8901 8.49274C19.9378 8.40401 19.9669 8.30743 19.9771 8.21149L20.0269 7.73297L20.0278 7.72809C20.0416 7.58431 20.0155 7.43413 19.9458 7.30035H19.9448L19.9438 7.2984Z" fill="#F5F5F5" stroke="#F5F5F5"/>
<path d="M28.7295 11.5457C29.1808 11.779 29.6422 12.0103 30.1133 12.2381L30.1152 12.2391C30.378 12.3643 30.6408 12.4835 30.9004 12.6034C30.6362 12.7953 30.454 13.0852 30.3447 13.3709L30.2773 13.5789C30.2298 13.7568 30.2196 13.9389 30.2383 14.1161L29.2197 13.5897C28.8195 13.3771 28.4264 13.1637 28.04 12.95L28.2314 12.7479C28.3721 12.5992 28.486 12.4252 28.5693 12.2362V12.2352C28.664 12.0185 28.7172 11.7836 28.7295 11.5457ZM27.0537 12.1893C27.1394 12.3149 27.2298 12.4361 27.3271 12.5506C27.2031 12.4803 27.0796 12.4102 26.957 12.3397C26.989 12.289 27.0202 12.2382 27.0537 12.1893Z" fill="#F5F5F5" stroke="#F5F5F5"/>
<path d="M31.6245 13.8676C31.6508 13.898 31.6731 13.9333 31.688 13.9672C31.7029 14.0013 31.7061 14.025 31.7065 14.0346C31.7077 14.0716 31.7026 14.0951 31.6978 14.1088C31.6929 14.1226 31.6861 14.133 31.6782 14.142C31.6655 14.1567 31.6436 14.1695 31.6157 14.1801C31.5997 14.1693 31.5755 14.151 31.5493 14.1196C31.4851 14.0425 31.4419 13.9391 31.4302 13.8422C31.4434 13.8377 31.4591 13.8316 31.478 13.8276C31.5071 13.8214 31.5376 13.8193 31.5669 13.8178C31.5807 13.8271 31.6022 13.8419 31.6245 13.8676Z" fill="#F5F5F5" stroke="#F5F5F5"/>
<path d="M37.6528 13.4326C37.6757 13.452 37.7282 13.5146 37.7661 13.6386C37.8048 13.7653 37.8094 13.8942 37.7896 13.9824L37.7886 13.9834C37.7431 14.187 37.5018 14.4073 36.9468 14.584C36.5623 14.7063 36.1363 14.7724 35.7847 14.8154L35.4624 14.8515C34.7947 14.9201 34.1229 14.8852 33.4624 14.75L33.5269 14.2539C34.5451 14.5355 35.3523 14.4404 35.9595 14.2402L35.9604 14.2392C36.5219 14.0533 37.0087 13.7371 37.3071 13.5761C37.4752 13.4855 37.5742 13.4471 37.6362 13.4355C37.643 13.4343 37.6488 13.433 37.6528 13.4326Z" fill="#F5F5F5" stroke="#F5F5F5"/>
</svg>
