<svg width="75" height="55" viewBox="0 0 75 55" fill="none" xmlns="http://www.w3.org/2000/svg">
<path d="M61.5654 0.500977H61.5898C61.9884 0.49557 62.3898 0.648904 62.7295 0.957031C62.9903 1.22841 63.1904 1.59018 63.2969 2.00684L63.3008 2.02051C63.5099 2.75329 63.4457 3.55693 63.2197 4.41309C62.9935 5.2704 62.6175 6.13611 62.2412 6.99023C61.6607 8.28354 60.9721 9.502 60.1865 10.627L60.1807 10.6357C59.547 11.5857 58.8661 12.4891 58.1416 13.3398L58.1406 13.3408C57.8737 13.6557 57.5549 14.0616 57.1787 14.54C56.8 15.0217 56.3567 15.5852 55.8301 16.2256C55.2466 16.9349 53.8988 18.5619 52.0928 20.5957L52.0918 20.5967C50.4356 22.4631 49.0368 23.9452 48.0986 24.9238L48.0977 24.9248C46.9765 26.1008 45.1351 28.0448 42.5762 30.3857C41.0981 31.7387 39.9374 32.765 39.3701 33.2588L39.3691 33.2598C37.7217 34.7008 35.4658 36.6715 32.4561 39.0625C30.5322 40.5889 28.1502 42.4074 25.3623 44.3779C19.2956 48.099 14.861 50.7952 13.6484 51.5283H13.6475C13.3774 51.6923 12.8159 52.0386 12.0479 52.418L11.707 52.582L11.7031 52.584C11.159 52.843 10.5309 53.1126 9.8291 53.3672C8.784 53.7463 8.04345 54.006 7.07422 54.123C5.60548 54.3012 3.12309 54.5694 1.63672 52.6348L1.63477 52.6328C1.61172 52.603 1.23145 52.1042 0.916992 51.335C0.600054 50.5595 0.36455 49.5447 0.588867 48.4697C0.892231 47.0228 1.86197 46.2311 2.82227 45.457L2.82129 45.4561C3.16585 45.1809 3.73925 44.8643 4.49512 44.5137C5.24348 44.1666 6.13875 43.8021 7.10449 43.4277C9.01989 42.6852 11.2353 41.8954 13.0215 41.1582V41.1592C16.58 39.696 19.1242 38.2948 22.959 36.1875C25.359 34.8677 28.1515 33.3399 31.5703 31.1318L33.0742 30.1426C36.9097 27.5765 42.5402 23.769 48.6826 17.667C50.6183 15.7435 52.9088 13.29 53.8906 12.2393C56.193 9.77371 57.8782 7.87437 59.0615 6.54297C58.9267 6.75838 58.7851 6.98334 58.6357 7.21582C57.3386 9.23551 55.5373 11.8319 53.6699 14.2764L53.6689 14.2773C51.5787 17.027 49.3574 19.6303 47.0166 22.0742V22.0752C46.4465 22.673 45.5075 23.6181 40.3721 28.3105C36.5624 31.7907 34.6702 33.5193 33.8359 34.2334C31.4027 36.309 29.2455 37.9164 21.4531 43.0518H21.4521C17.7693 45.4816 14.8108 47.2826 12.7852 48.5283C11.7761 49.1489 10.9877 49.6385 10.4609 49.998C10.2003 50.1759 9.98457 50.3345 9.83496 50.4697C9.76257 50.5352 9.6827 50.6153 9.62207 50.7061C9.57922 50.7702 9.44462 50.9879 9.54199 51.2529C9.62098 51.4682 9.79763 51.5608 9.90332 51.5957C10.0063 51.6297 10.106 51.6331 10.1729 51.6318C10.3116 51.6291 10.4695 51.6 10.6201 51.5645C10.9312 51.4911 11.3334 51.3598 11.7568 51.207C12.6085 50.8998 13.6099 50.4801 14.2842 50.1758L14.2852 50.1768C15.5617 49.6036 16.5856 49.0255 18.3955 47.918L18.3945 47.917C19.9767 46.9521 21.2795 46.126 22.1865 45.54C22.6399 45.2471 22.9946 45.0143 23.2363 44.8545C23.3572 44.7746 23.4502 44.7126 23.5127 44.6709C23.5439 44.6501 23.568 44.6348 23.584 44.624C23.5919 44.6187 23.5975 44.6141 23.6016 44.6113C23.6035 44.61 23.6054 44.6091 23.6064 44.6084L23.6074 44.6074H23.6084C31.1194 39.5346 36.6453 35.4698 38.4238 33.8545L38.4258 33.8535C38.9392 33.3836 39.5055 32.8557 39.9434 32.4463C40.1623 32.2415 40.3492 32.0657 40.4814 31.9414C40.5475 31.8793 40.5998 31.8297 40.6357 31.7959C40.6537 31.779 40.6684 31.7666 40.6777 31.7578C40.6824 31.7535 40.6851 31.7493 40.6875 31.7471C40.6886 31.7461 40.6898 31.7457 40.6904 31.7451L40.6953 31.7402C40.698 31.7377 40.702 31.7342 40.707 31.7295C40.7176 31.7195 40.7336 31.7047 40.7539 31.6855C40.7947 31.6472 40.8541 31.5909 40.9287 31.5205C41.0782 31.3794 41.2896 31.1795 41.5342 30.9473C42.0229 30.4833 42.6476 29.8856 43.1924 29.3555L43.1934 29.3564C43.9945 28.5784 46.7296 25.7808 50.9863 20.9639C52.804 18.9213 54.6947 16.737 56.3438 14.7002L56.3447 14.7012C57.6155 13.1449 58.4068 12.0929 59.1328 11.125H59.1338C59.5611 10.554 59.8755 10.1258 60.2363 9.60352L60.2373 9.60254C60.9239 8.59969 61.5651 7.55422 62.1592 6.47168H62.1602V6.46973C62.1608 6.46866 62.1621 6.46755 62.1631 6.46582C62.1652 6.46212 62.1682 6.45673 62.1719 6.4502C62.1792 6.43713 62.1892 6.41826 62.2021 6.39453C62.2281 6.34705 62.2653 6.27917 62.3086 6.19434C62.395 6.02508 62.51 5.78645 62.625 5.50977C62.8203 5.03959 63.0356 4.41025 63.082 3.80469L63.0908 3.54688C63.0907 3.44583 63.0876 3.06333 63.0068 2.6543C62.9658 2.44661 62.901 2.21228 62.7949 1.99707C62.6901 1.78446 62.5258 1.55098 62.2646 1.40527L62.2607 1.40332L62.1738 1.36133C61.7428 1.17256 61.3094 1.31597 61.0273 1.45898C60.7121 1.61887 60.4342 1.85339 60.2705 1.99414C58.9995 3.08745 57.835 4.5243 56.6807 6.0166C55.516 7.52218 54.3599 9.08586 53.0742 10.4971L53.0732 10.498C52.5825 11.039 51.9657 11.6379 50.7012 12.8701C49.5218 14.0179 48.9876 14.4885 48.2549 14.917C47.915 15.1157 47.5479 15.3279 47.2236 15.4883C47.3503 15.3145 47.5112 15.1114 47.7061 14.8799C48.3778 14.0818 49.3801 13.0259 50.5596 11.7832C52.9052 9.31184 55.9195 6.1342 58.2061 2.97363C58.3069 2.83883 58.7724 2.20162 59.4209 1.59863C60.1094 0.95851 60.8813 0.475997 61.5654 0.500977ZM6.99902 48.1396C6.61925 47.5522 5.94959 46.9599 5.14062 47.1084C4.63327 47.2022 4.19364 47.4339 3.86328 47.8037C3.53559 48.1707 3.34096 48.644 3.26758 49.1826C3.18137 49.8121 3.35094 50.5641 3.66602 51.1504C3.94769 51.6744 4.4521 52.2441 5.1582 52.2686L5.30176 52.2666C6.33842 52.1957 7.2701 51.4925 7.49414 50.3447C7.64113 49.5933 7.39667 48.7548 6.99902 48.1396Z" fill="#FFB52B" stroke="#FFB52B"/>
<path d="M5.39026 49.9797C5.39593 49.9816 5.42062 49.9934 5.4469 50.0374C5.4908 50.1404 5.52737 50.2981 5.526 50.4397C5.52572 50.467 5.52246 50.4903 5.52014 50.51C5.51901 50.5096 5.51737 50.5105 5.51624 50.51C5.48231 50.4962 5.4336 50.4588 5.39417 50.3831C5.35453 50.2897 5.33466 50.1738 5.34338 50.0784C5.35181 49.9873 5.37691 49.9777 5.36292 49.9905L5.3678 49.9875C5.37778 49.9806 5.38412 49.979 5.38538 49.9788C5.38637 49.9786 5.3878 49.979 5.39026 49.9797Z" fill="#FFB52B" stroke="#FFB52B"/>
<path d="M7.82935 1.43042C8.05333 1.40124 8.34629 1.4211 8.76685 1.52026C9.62211 1.72193 10.8567 2.212 12.8518 3.04077C15.496 4.1409 16.8101 4.68778 18.4729 5.42847L18.4768 5.43042C19.0445 5.67658 21.0498 6.5276 25.051 8.21167C31.2138 10.8071 41.357 14.677 45.054 16.0769C44.7954 16.5036 44.4875 16.8805 44.1389 17.1941C42.9494 18.2484 41.4847 18.323 40.219 18.0818C38.9533 17.8406 37.9696 17.2956 37.8567 17.2312L37.3557 16.946L37.1438 17.4822C36.8811 18.1462 36.41 19.2127 35.6975 20.2009C34.9816 21.1939 34.0563 22.0589 32.9026 22.4011C31.6947 22.7574 30.6359 22.4264 29.3928 21.8914L28.8479 21.6511C23.4497 19.229 20.9216 17.9359 18.9153 17.0222C14.6994 15.1023 11.9623 13.8854 10.2786 13.1482C9.43712 12.7798 8.85835 12.5316 8.4895 12.3748C8.30507 12.2963 8.17237 12.2408 8.08618 12.2048C8.04316 12.1869 8.01149 12.1735 7.99048 12.1648C7.98009 12.1605 7.97233 12.1572 7.96704 12.155C7.96445 12.154 7.96258 12.1527 7.96118 12.1521H7.95923V12.1511H7.95728C7.29476 11.8794 6.56524 11.584 5.9436 11.158C5.32936 10.7369 4.86496 10.2173 4.68481 9.51733C4.58503 9.10549 4.61587 8.61278 4.80786 7.8689C5.00166 7.11806 5.3417 6.17438 5.81177 4.87183C6.18147 3.84854 6.44985 3.10733 6.68872 2.57202C6.93357 2.02334 7.11109 1.77925 7.25806 1.66968H7.25903C7.44149 1.53312 7.61674 1.45813 7.82935 1.43042ZM8.69165 1.64526C8.48696 1.56113 8.2632 1.56333 8.06372 1.64526L7.97974 1.6853C7.76591 1.80212 7.62079 1.99833 7.55005 2.20972L7.54907 2.21362L7.30591 2.95972L7.30493 2.96265C7.26966 3.07308 7.25308 3.18862 7.2561 3.30347C7.25916 3.41846 7.28191 3.53351 7.32349 3.64233C7.36506 3.75115 7.42606 3.85454 7.50708 3.94409C7.58825 4.03379 7.68859 4.10902 7.80493 4.15991L7.80884 4.16187L37.3899 16.7859L37.3948 16.7878C37.5278 16.8428 37.6735 16.8628 37.8186 16.8435C37.9633 16.8242 38.0961 16.7674 38.2083 16.6843C38.3201 16.6015 38.4083 16.4952 38.4709 16.3787C38.5335 16.2622 38.5716 16.1352 38.5852 16.0066L38.6838 15.0701V15.0652C38.6978 14.9201 38.682 14.7712 38.634 14.6316L38.5754 14.4958L38.4954 14.3679C38.4052 14.2464 38.2839 14.1438 38.135 14.0798L38.1321 14.0789L8.69653 1.64722L8.69165 1.64526Z" fill="#FFB52B" stroke="#FFB52B"/>
<path d="M54.7545 21.2849C56.1472 22.036 57.591 22.775 59.0875 23.4988L59.0904 23.4998C59.5026 23.6962 59.9127 23.8892 60.3209 24.0789L61.5386 24.6375C61.5731 24.6539 61.6067 24.6717 61.6402 24.6892C60.5723 24.7675 59.9148 25.7272 59.6627 26.6736C59.4974 27.2914 59.6127 27.9593 59.8814 28.5183C58.9038 28.0309 57.9125 27.5244 56.9097 26.9939H56.9107C55.2284 26.1002 53.6084 25.2 52.0494 24.2966C52.3124 23.8292 52.6074 23.3924 52.9302 22.99C53.2686 23.5851 53.6719 24.1278 54.1324 24.6023L54.4957 24.9773L54.8541 24.5984C55.0894 24.3496 55.2822 24.0557 55.4244 23.7332V23.7312C55.5896 23.3532 55.6835 22.9408 55.7017 22.5212L55.7125 22.282L55.5328 22.1238C55.3733 21.9836 55.2016 21.8449 55.0191 21.7068L55.0181 21.7058L54.6246 21.4246C54.613 21.4168 54.6009 21.4098 54.5894 21.4021C54.6442 21.3625 54.6989 21.3229 54.7545 21.2849Z" fill="#FFB52B" stroke="#FFB52B"/>
<path d="M61.7809 26.5342C61.8502 26.5342 62.0172 26.5959 62.197 26.8037C62.3464 26.9766 62.4407 27.1806 62.4665 27.3535L62.4733 27.4258C62.4881 27.886 62.202 28.1428 61.86 28.2158H61.8581C61.7623 28.2364 61.5546 28.1909 61.3229 27.9131C61.1046 27.6512 60.9611 27.2822 60.9714 26.9326V26.9287C60.9734 26.8264 61.0158 26.7465 61.1618 26.668C61.3246 26.5804 61.5605 26.5342 61.7809 26.5342Z" fill="#FFB52B" stroke="#FFB52B"/>
<path d="M73.503 25.8005C73.6778 25.7681 73.7888 25.7932 73.8946 25.8699C74.0461 25.9797 74.2024 26.2097 74.2999 26.5291C74.3955 26.8425 74.4143 27.1781 74.3546 27.4441L74.3536 27.4451C74.2031 28.12 73.4836 28.6212 72.3858 28.9705C71.5944 29.2222 70.7253 29.3566 70.0245 29.4421L69.3887 29.5144C67.8875 29.6686 66.3764 29.5638 64.8985 29.2107L65.1534 27.2478C67.3059 27.9655 68.9603 27.7854 70.1612 27.3894L70.1622 27.3884C71.2072 27.0424 72.0894 26.4657 72.7198 26.1257C73.0541 25.9455 73.3032 25.8376 73.503 25.8005Z" fill="#FFB52B" stroke="#FFB52B"/>
</svg>
